# xmcd
#
# Track frame offsets: 
#        150
#        21475
#        38943
#        57690
#        75045
#        93723
#        110997
#        126064
#        146696
#        155803
#        168140
#        188103
#        205859
#        221675
#        237483
#        253889
#        274258
#        293578
#
# Disc length: 4128 seconds
#
# Revision: 0
# Processed by: cddbd v1.5.2PL0 Copyright (c) Steve Scherf et al.
# Submitted via: ExactAudioCopyFreeDBPlugin 1.0
#
DISCID=17101e12
DTITLE=歌星 - 中华歌典80年代　改革开放的时代 2CD-2
DYEAR=1900
DGENRE=Country
TTITLE0=董文华 - 血染的风彩
TTITLE1=张也 - 高天上流云
TTITLE2=苏红 - 月亮走，我也走
TTITLE3=柳石明 - 一个美丽的传说
TTITLE4=彭丽媛 - 我们是黄河泰山
TTITLE5=李毂 - 难忘今宵
TTITLE6=上海小荧星艺术团 - 歌声与微笑
TTITLE7=李娜 - 好人一生平安
TTITLE8=刘秉义 - 我为祖国献石油
TTITLE9=李双江 - 船歌号子
TTITLE10=郑绪岚 - 妈妈留给我一首歌
TTITLE11=田震 - 我热恋的故乡
TTITLE12=毛阿敏 - 思念
TTITLE13=克里木 - 达板城的姑娘
TTITLE14=韦唯 - 爱的奉献
TTITLE15=祖海 - 为了谁
TTITLE16=林萍 - 一个真实的故事
TTITLE17=李琼 - 山路十八弯
EXTD=
EXTT0=
EXTT1=
EXTT2=
EXTT3=
EXTT4=
EXTT5=
EXTT6=
EXTT7=
EXTT8=
EXTT9=
EXTT10=
EXTT11=
EXTT12=
EXTT13=
EXTT14=
EXTT15=
EXTT16=
EXTT17=
PLAYORDER=
